<?xml version="1.0" standalone="no"?><!DOCTYPE svg PUBLIC "-//W3C//DTD SVG 1.1//EN" "http://www.w3.org/Graphics/SVG/1.1/DTD/svg11.dtd"><svg t="1607414104996" class="icon" viewBox="0 0 1024 1024" version="1.1" xmlns="http://www.w3.org/2000/svg" p-id="2711" xmlns:xlink="http://www.w3.org/1999/xlink" width="32" height="32"><defs><style type="text/css"></style></defs><path d="M648.584 927.64H374.096c-17.673 0-32-14.327-32-32s14.327-32 32-32h274.488c17.673 0 32 14.327 32 32s-14.327 32-32 32zM704.137 830.576H314.101c-17.673 0-32-14.327-32-32s14.327-32 32-32h390.036c17.673 0 32 14.327 32 32s-14.327 32-32 32zM591.518 723.287c-12.538 0-24.439-7.417-29.557-19.715-6.79-16.316 0.933-35.048 17.25-41.838C644.709 634.479 687.03 571.03 687.03 500.09c0-96.49-78.5-174.99-174.99-174.99s-174.99 78.5-174.99 174.99c0 68.714 40.491 131.37 103.155 159.623 16.111 7.264 23.283 26.213 16.019 42.324-7.264 16.111-26.214 23.282-42.325 16.02-85.563-38.577-140.85-124.134-140.85-217.966 0-63.836 24.859-123.852 69.999-168.992 45.14-45.14 105.156-69.999 168.992-69.999 63.837 0 123.853 24.859 168.991 69.999 45.14 45.14 69.999 105.155 69.999 168.992 0 48.131-14.253 94.541-41.218 134.209-26.297 38.687-62.956 68.605-106.014 86.522a31.902 31.902 0 0 1-12.28 2.465zM512.1 244.105c-17.673 0-32-14.327-32-32V127.99c0-17.673 14.327-32 32-32s32 14.327 32 32v84.115c0 17.674-14.328 32-32 32zM279.15 351.267c-9.133 0-18.2-3.888-24.53-11.432l-54.068-64.436c-11.36-13.539-9.594-33.723 3.944-45.083 13.539-11.361 33.723-9.594 45.083 3.944l54.068 64.436c11.36 13.539 9.594 33.723-3.944 45.083a31.872 31.872 0 0 1-20.553 7.488zM749.049 348.267a31.872 31.872 0 0 1-20.553-7.488c-13.538-11.36-15.304-31.544-3.944-45.083l54.068-64.436c11.359-13.538 31.543-15.305 45.083-3.944 13.538 11.36 15.304 31.544 3.944 45.083l-54.068 64.436c-6.329 7.542-15.398 11.432-24.53 11.432z" fill="" p-id="2712"></path><path d="M430.847 813.077c-17.673 0-32-14.327-32-32V691.59c0-17.673 14.327-32 32-32s32 14.327 32 32v89.487c0 17.673-14.327 32-32 32zM591.848 815.077c-17.673 0-32-14.327-32-32V693.59c0-17.673 14.327-32 32-32s32 14.327 32 32v89.487c0 17.673-14.327 32-32 32z" fill="" p-id="2713"></path></svg>