<?xml version="1.0" standalone="no"?><!DOCTYPE svg PUBLIC "-//W3C//DTD SVG 1.1//EN" "http://www.w3.org/Graphics/SVG/1.1/DTD/svg11.dtd"><svg t="1570104958583" class="icon" viewBox="0 0 1024 1024" version="1.1" xmlns="http://www.w3.org/2000/svg" p-id="1399" xmlns:xlink="http://www.w3.org/1999/xlink" width="32" height="32"><defs><style type="text/css"></style></defs><path d="M512 128 128 326.4 896 326.4Z" p-id="1400"></path><path d="M128 832l768 0 0 64-768 0 0-64Z" p-id="1401"></path><path d="M230.4 384l0 384c0 19.2 12.8 32 32 32s32-12.8 32-32L294.4 384c0-19.2-12.8-32-32-32S230.4 364.8 230.4 384z" p-id="1402"></path><path d="M390.4 384l0 384c0 19.2 12.8 32 32 32s32-12.8 32-32L454.4 384c0-19.2-12.8-32-32-32S390.4 364.8 390.4 384z" p-id="1403"></path><path d="M569.6 384l0 384c0 19.2 12.8 32 32 32s32-12.8 32-32L633.6 384c0-19.2-12.8-32-32-32S569.6 364.8 569.6 384z" p-id="1404"></path><path d="M736 384l0 384c0 19.2 12.8 32 32 32s32-12.8 32-32L800 384c0-19.2-12.8-32-32-32S736 364.8 736 384z" p-id="1405"></path></svg>