<?xml version="1.0" standalone="no"?><!DOCTYPE svg PUBLIC "-//W3C//DTD SVG 1.1//EN" "http://www.w3.org/Graphics/SVG/1.1/DTD/svg11.dtd"><svg t="1607414091128" class="icon" viewBox="0 0 1024 1024" version="1.1" xmlns="http://www.w3.org/2000/svg" p-id="1958" xmlns:xlink="http://www.w3.org/1999/xlink" width="32" height="32"><defs><style type="text/css"></style></defs><path d="M364.851804 792.021585c-116.75667-16.679524-212.024383-57.201559-261.142001-109.798341L103.709803 745.973818l0 36.224243c0 77.155591 156.153093 163.111422 380.149895 163.111422 1.534926 0 2.967523 0 4.502448 0C432.2862 909.187569 388.489657 855.465174 364.851804 792.021585z" p-id="1959"></path><path d="M655.873688 422.616169C511.693015 422.616169 394.322374 539.884481 394.322374 684.065154S511.693015 945.616468 655.873688 945.616468s261.551314-117.268312 261.551314-261.448986C917.322674 539.884481 800.054362 422.51384 655.873688 422.616169zM494.706505 684.065154c0-88.821025 72.243829-161.064855 161.064855-161.064855 25.684421 0 49.526931 6.549016 71.015889 17.293495L512.102328 755.183372C501.35785 733.694414 494.706505 709.749575 494.706505 684.065154zM655.77136 845.232337c-26.503048 0-51.164185-7.060658-73.267113-18.521435l215.912861-215.912861c11.460777 22.102928 18.521435 46.764065 18.521435 73.267113C816.938543 772.988508 744.694714 845.130009 655.77136 845.232337z" p-id="1960"></path><path d="M345.511742 684.065154c0-25.786749 3.172179-50.8572 9.107225-74.802039C242.569401 591.764965 151.394824 552.061557 103.709803 501.102029l0 39.191766 0 60.783052c0 60.987709 97.825922 127.603478 249.578895 152.673928C348.172279 731.340861 345.511742 708.009993 345.511742 684.065154z" p-id="1961"></path><path d="M857.255921 448.198261c4.502448-9.516538 6.753672-19.033077 6.753672-28.344959l0-99.974818c-25.275107 27.117018-62.829619 50.959528-109.286699 70.094934C792.789048 402.662137 827.478365 422.616169 857.255921 448.198261z" p-id="1962"></path><path d="M467.384831 437.760767c-162.292795-3.069851-300.74308-50.652543-363.572699-117.882282l0 99.974818c0 62.624963 103.044669 131.082642 261.755971 154.618167C386.238433 519.930449 421.848706 472.654742 467.384831 437.760767z" p-id="1963"></path><path d="M530.112122 400.410912c38.475467-17.088838 81.044069-26.707705 125.761567-26.707705 10.335165 0 20.568002 0.511642 30.698511 1.534926 110.002998-31.41481 177.539722-85.955831 177.539722-136.710703 0-77.155591-156.153093-163.111422-380.149895-163.111422s-380.149895 85.955831-380.149895 163.111422c0 77.155591 156.153093 163.111422 380.149895 163.111422C499.618267 401.638853 515.069851 401.229539 530.112122 400.410912z" p-id="1964"></path></svg>