<?xml version="1.0" standalone="no"?><!DOCTYPE svg PUBLIC "-//W3C//DTD SVG 1.1//EN" "http://www.w3.org/Graphics/SVG/1.1/DTD/svg11.dtd"><svg t="1607188063708" class="icon" viewBox="0 0 1024 1024" version="1.1" xmlns="http://www.w3.org/2000/svg" p-id="1263" width="32" height="32" xmlns:xlink="http://www.w3.org/1999/xlink"><defs><style type="text/css"></style></defs><path d="M439.8 748.5c-175.1 0-317.6-142.5-317.6-317.6 0-175.1 142.5-317.6 317.6-317.6s317.6 142.5 317.6 317.6c0 175.2-142.5 317.6-317.6 317.6z m0-593.4C287.7 155.1 164 278.8 164 430.9c0 152.1 123.7 275.9 275.8 275.9 152.1 0 275.9-123.7 275.9-275.9-0.1-152.1-123.8-275.8-275.9-275.8z" fill="#515151" p-id="1264"></path><path d="M238.8 460.7c-0.3-4.8-0.4-9.6-0.4-14.4 0-92.3 54.3-176.6 138.4-214.8l17.3 38c-69.3 31.5-114 100.9-114 176.8 0 4 0.1 7.9 0.4 11.9l-41.7 2.5z" fill="#F74F4F" p-id="1265"></path><path d="M870.3 910.7L856.4 897 618.7 659.4l31.5-27.6 14 13.7 237.6 237.6z" fill="#515151" p-id="1266"></path></svg>