<?xml version="1.0" standalone="no"?><!DOCTYPE svg PUBLIC "-//W3C//DTD SVG 1.1//EN" "http://www.w3.org/Graphics/SVG/1.1/DTD/svg11.dtd"><svg t="1582368459206" class="icon" viewBox="0 0 1024 1024" version="1.1" xmlns="http://www.w3.org/2000/svg" p-id="3782" width="32" height="32" xmlns:xlink="http://www.w3.org/1999/xlink"><defs><style type="text/css"></style></defs><path d="M905.562541 660.823514c-33.775244-33.775244-77.95342-50.196239-122.213459-50.196239-7.248078 0-14.499226 0.442068-21.708418 1.318018L632.618125 482.922754c16.550954-37.063127 25.954115-78.016865 25.954115-121.231085 0-164.518984-133.370567-297.886481-297.886481-297.886481-45.320185 0-87.804788 10.900258-126.258589 29.002544l197.427488 197.427488L291.429419 430.659437 93.350085 232.581126c-18.981307 39.199791-30.550807 82.635045-30.550807 129.110543 0 164.515914 133.367497 297.886481 297.886481 297.886481 43.214221 0 84.167958-9.403161 121.231085-25.954115l129.022539 129.022539c-6.229888 51.214429 9.56996 104.613616 48.878221 143.921877 33.929764 33.929764 78.401628 50.89311 122.873492 50.89311 44.468794 0 88.940658-16.963347 122.871445-50.89311C973.422068 838.7079 973.422068 728.683041 905.562541 660.823514zM870.456998 871.462908c-23.441898 23.441898-54.611805 36.350906-87.765903 36.350906-33.157167 0-64.326051-12.909008-87.767949-36.350906-26.748201-26.748201-39.393195-64.22679-34.69929-102.82283l2.921539-24.00267-17.099447-17.096377L527.219633 608.711646l-36.517705-36.517705c-14.899338 9.233292-30.853705 16.645099-47.620577 22.593578-25.91216 9.196453-53.368488 15.141862-82.395592 15.141862-136.879484 0-248.238734-111.35925-248.238734-248.238734 0-12.30321 0.99056-24.594141 2.963495-36.835953l140.913357 140.910287 35.105542 35.108612 35.108612-35.108612 140.42524-140.42524 35.105542-35.105542-35.105542-35.105542L327.643202 115.809609c10.978029-1.569752 22.00313-2.357697 33.041534-2.357697 136.879484 0 248.238734 111.35925 248.238734 248.238734 0 29.027104-5.945409 56.484456-15.141862 82.395592-5.948479 16.766872-13.360286 32.718169-22.593578 47.617507l36.517705 36.517705 118.828362 118.828362 17.096377 17.099447 24.00267-2.921539c5.217838-0.633427 10.466376-0.954745 15.714913-0.954745 33.181727 0 64.114227 12.663414 87.107917 35.654035C918.850172 744.32223 918.850172 823.066665 870.456998 871.462908z" p-id="3783" fill="#2c2c2c"></path></svg>