<?xml version="1.0" standalone="no"?><!DOCTYPE svg PUBLIC "-//W3C//DTD SVG 1.1//EN" "http://www.w3.org/Graphics/SVG/1.1/DTD/svg11.dtd"><svg t="1607669335654" class="icon" viewBox="0 0 1024 1024" version="1.1" xmlns="http://www.w3.org/2000/svg" p-id="5898" xmlns:xlink="http://www.w3.org/1999/xlink" width="32" height="32"><defs><style type="text/css"></style></defs><path d="M928 96v271.872h-92.736l0.064-182.272H188.8v459.136H594.56v90.112h-37.376v102.976l179.2-0.064v90.24H288v-90.24h179.648v-102.912H96V96h832z m-66.88 336.256l8 38.4c18.304 5.632 34.88 14.72 48.96 26.496l39.232-12.672 34.688 56.512-31.168 25.472a121.856 121.856 0 0 1 0 53.44l31.168 25.6-34.688 56.448-39.232-12.672a139.072 139.072 0 0 1-48.896 26.432l-8.064 38.4H791.68l-8.064-38.656a139.008 139.008 0 0 1-48.256-26.368l-39.872 12.8-34.688-56.448 31.872-26.112a121.92 121.92 0 0 1 0-52.288l-31.872-26.048 34.688-56.512 39.872 12.928c13.824-11.712 30.208-20.8 48.32-26.432l8-38.72h69.376z m-34.24 96.64c-37.824 0-68.48 28.8-68.48 64.32 0 35.584 30.656 64.384 68.48 64.384 37.76 0 68.48-28.8 68.48-64.384s-30.72-64.384-68.48-64.384z" fill="#707070" p-id="5899"></path></svg>