<?xml version="1.0" standalone="no"?><!DOCTYPE svg PUBLIC "-//W3C//DTD SVG 1.1//EN" "http://www.w3.org/Graphics/SVG/1.1/DTD/svg11.dtd"><svg t="1609941898430" class="icon" viewBox="0 0 1024 1024" version="1.1" xmlns="http://www.w3.org/2000/svg" p-id="2015" xmlns:xlink="http://www.w3.org/1999/xlink" width="32" height="32"><defs><style type="text/css"></style></defs><path d="M358.4 505.344c-118.784 0-215.552-96.768-215.552-215.552S239.616 74.24 358.4 74.24s215.552 96.768 215.552 215.552S477.184 505.344 358.4 505.344z m0-379.904c-90.624 0-164.352 73.728-164.352 164.352S267.776 454.144 358.4 454.144c90.624 0 164.352-73.728 164.352-164.352S449.024 125.44 358.4 125.44z" p-id="2016"></path><path d="M35.84 861.184c-14.336 0-25.6-11.264-25.6-25.6 0-192 156.16-348.16 348.16-348.16 38.4 0 76.8 6.144 113.664 18.944 13.312 4.608 20.48 18.944 15.872 32.256-4.608 13.312-18.944 20.48-32.256 15.872-31.232-10.752-64-15.872-97.28-15.872-163.84 0-296.96 133.12-296.96 296.96 0 14.336-11.264 25.6-25.6 25.6z" p-id="2017"></path><path d="M750.592 835.072c-101.888 0-184.832-82.944-184.832-184.832s82.944-184.832 184.832-184.832c101.888 0 184.832 82.944 184.832 184.832s-82.944 184.832-184.832 184.832z m0-318.464c-73.728 0-133.632 59.904-133.632 133.632s59.904 133.632 133.632 133.632 133.632-59.904 133.632-133.632-59.904-133.632-133.632-133.632z" p-id="2018"></path><path d="M749.056 491.52c-14.336 0-25.6-11.264-25.6-25.6V407.552c0-14.336 11.264-25.6 25.6-25.6s25.6 11.264 25.6 25.6V465.92c0 14.336-11.264 25.6-25.6 25.6zM617.984 546.304c-6.656 0-13.312-2.56-18.432-7.68l-40.448-41.472c-9.728-10.24-9.728-26.112 0.512-36.352 10.24-9.728 26.112-9.728 36.352 0.512l40.448 41.472c9.728 10.24 9.728 26.112-0.512 36.352-5.12 4.608-11.264 7.168-17.92 7.168zM565.248 677.888H506.88c-14.336 0-25.6-11.264-25.6-25.6s11.264-25.6 25.6-25.6h58.368c14.336 0 25.6 11.264 25.6 25.6s-11.264 25.6-25.6 25.6zM579.584 848.896c-6.656 0-12.8-2.56-17.92-7.168-10.24-9.728-10.24-26.112 0-36.352l40.96-41.472c9.728-10.24 26.112-10.24 36.352 0 10.24 9.728 10.24 26.112 0 36.352l-40.96 41.472c-5.12 4.608-11.776 7.168-18.432 7.168zM751.616 919.552c-14.336 0-25.6-11.264-25.6-25.6v-58.368c0-14.336 11.264-25.6 25.6-25.6s25.6 11.264 25.6 25.6v58.368c0 14.336-11.264 25.6-25.6 25.6zM922.624 846.848c-6.656 0-12.8-2.56-17.92-7.168l-41.472-40.96c-10.24-9.728-10.24-26.112 0-36.352 9.728-10.24 26.112-10.24 36.352 0l41.472 40.96c10.24 9.728 10.24 26.112 0 36.352-5.12 4.608-11.776 7.168-18.432 7.168zM993.28 674.816h-58.368c-14.336 0-25.6-11.264-25.6-25.6s11.264-25.6 25.6-25.6H993.28c14.336 0 25.6 11.264 25.6 25.6s-11.264 25.6-25.6 25.6zM880.64 545.28c-6.656 0-12.8-2.56-17.92-7.168-10.24-9.728-10.24-26.112 0-36.352l40.96-41.472c9.728-10.24 26.112-10.24 36.352 0s10.24 26.112 0 36.352l-40.96 41.472c-5.12 4.608-11.776 7.168-18.432 7.168z" p-id="2019"></path></svg>