<?xml version="1.0" standalone="no"?><!DOCTYPE svg PUBLIC "-//W3C//DTD SVG 1.1//EN" "http://www.w3.org/Graphics/SVG/1.1/DTD/svg11.dtd"><svg t="1570097966206" class="icon" viewBox="0 0 1024 1024" version="1.1" xmlns="http://www.w3.org/2000/svg" p-id="1246" xmlns:xlink="http://www.w3.org/1999/xlink" width="32" height="32"><defs><style type="text/css"></style></defs><path d="M975.3344 977.5424c0 25.6576-20.8 46.4576-46.4576 46.4576-25.6576 0-46.4576-20.8-46.4576-46.4576l-0.0576-0.5632-1.2608 0c-22.0416-180.032-172.512-320.1088-357.1328-325.9456-3.9872 0.1408-7.8912 0.6016-11.9104 0.6016-4.0064 0-7.8976-0.4608-11.8656-0.6016-184.5952 5.856-335.0464 145.9264-357.088 325.9392l-1.152 0 0.0576 0.5632c0 25.6576-20.8 46.4576-46.4576 46.4576s-46.4576-20.8-46.4576-46.4576l-0.4224-4.3136c0-6.0736 1.2416-11.84 3.3664-17.152 23.2832-162.688 130.2976-298.304 276.3968-361.184-85.8176-58.6816-142.1824-157.2672-142.1824-269.0752C186.2464 145.8752 332.1152 0 512.0576 0c179.9424 0 325.8176 145.8752 325.8176 325.8176 0 111.7632-56.3264 210.3168-142.0864 268.9984 147.4944 63.424 255.168 200.9728 277.1328 365.6896 1.1648 4.0704 1.984 8.2752 1.984 12.7168L975.3344 977.5424zM744.704 325.9136c0-128.5312-104.192-232.7296-232.7296-232.7296-128.5312 0-232.7232 104.192-232.7232 232.7296 0 128.5312 104.192 232.7296 232.7232 232.7296C640.512 558.6432 744.704 454.4448 744.704 325.9136z" p-id="1247"></path></svg>