<?xml version="1.0" standalone="no"?><!DOCTYPE svg PUBLIC "-//W3C//DTD SVG 1.1//EN" "http://www.w3.org/Graphics/SVG/1.1/DTD/svg11.dtd"><svg t="1607669202154" class="icon" viewBox="0 0 1024 1024" version="1.1" xmlns="http://www.w3.org/2000/svg" p-id="4356" xmlns:xlink="http://www.w3.org/1999/xlink" width="32" height="32"><defs><style type="text/css"></style></defs><path d="M135.8 857.1c-14.9 0-26.5 11.7-26.5 26.5s11.7 26.5 26.5 26.5h859c14.9 0 26.5-11.7 26.5-26.5s-11.7-26.5-26.5-26.5h-859z" p-id="4357" fill="#8a8a8a"></path><path d="M1024 31c0-14.9-11.7-26.5-26.5-26.5H31.8C17 4.5 5.3 16.2 5.3 31v811.8h0.5C2 855.7 0 869.2 0 883.1c0 73.7 55.2 133.7 125.2 136.4h869.6c14.9 0 26.5-11.7 26.5-26.5s-11.7-26.5-26.5-26.5h-868c-41.4-1.6-73.7-38.2-73.7-83.3 0-44 31.3-81.7 71.1-87h796.9v1.1c56.8 0 102.9-46.2 102.9-102.9V31z m-53.1 663.3c0 25.2-17.4 45.2-41.3 49.2-1.4-0.2-2.9-0.3-4.4-0.3H119.9c-22.7 2.5-43.7 11.1-61.5 24.2V57.6H971v636.7z" p-id="4358" fill="#8a8a8a"></path><path d="M313 430h45c4.3 23.8 13.9 45.9 27.6 64.8L353.9 526c-10.6 10.6-10.6 27.1-0.5 37.7 5.3 5.3 12.2 8 19.1 8 6.9 0 13.3-2.7 18.6-7.4l32.5-32c19.4 13.6 41.9 23 66.2 26.9v44.4c0 14.9 11.7 26.5 26.5 26.5s26.5-11.7 26.5-26.5v-45c23.8-4.3 45.9-13.9 64.8-27.6l31.2 31.7c5.3 5.3 12.2 8 19.1 8 6.9 0 13.3-2.7 18.6-7.4 10.6-10.6 10.6-27.1 0.5-37.7L645 493c13.6-19.4 23-41.9 26.9-66.2h44.4c14.9 0 26.5-11.7 26.5-26.5s-11.7-26.5-26.5-26.5h-45c-4.3-23.8-14-45.9-27.7-64.8l31.8-31.8c10.6-10.6 10.6-27.1 0-37.7s-27.1-10.6-37.7 0l-32 32c-19.4-13.6-41.9-23-66.1-26.9v-44.4c0-14.9-11.7-26.5-26.5-26.5s-26.5 11.7-26.5 26.5v45c-24 4.3-46.1 14-65.1 27.9l-30.9-31.4c-10.6-10.6-27.1-10.6-37.7-0.5-10.6 10.6-10.6 27.1-0.5 37.7l31.8 32.3c-13.5 19.3-22.8 41.7-26.7 65.8H313c-14.9 0-26.5 11.7-26.5 26.5S298.2 430 313 430z m201.7-134.2c58.4 0 106.1 47.8 106.1 106.1S573 508 514.7 508c-58.4 0-106.1-47.8-106.1-106.1s47.7-106.1 106.1-106.1z" p-id="4359" fill="#707070"></path></svg>